<mxfile host="app.diagrams.net" agent="Mozilla/5.0 (Windows NT 10.0; Win64; x64) AppleWebKit/537.36 (KHTML, like Gecko) Chrome/131.0.0.0 Safari/537.36 Edg/131.0.0.0" version="26.0.4">
  <diagram name="Page-1" id="dctyIQo91ijjNuMPYQGr">
    <mxGraphModel dx="1042" dy="565" grid="1" gridSize="10" guides="1" tooltips="1" connect="1" arrows="1" fold="1" page="1" pageScale="1" pageWidth="827" pageHeight="1169" math="0" shadow="0">
      <root>
        <mxCell id="0" />
        <mxCell id="1" parent="0" />
        <mxCell id="-M3N0pG6VcguPk9W78NM-1" value="Customer" style="rounded=0;whiteSpace=wrap;html=1;" vertex="1" parent="1">
          <mxGeometry x="280" y="160" width="160" height="40" as="geometry" />
        </mxCell>
        <mxCell id="-M3N0pG6VcguPk9W78NM-2" value="Admin" style="rounded=0;whiteSpace=wrap;html=1;" vertex="1" parent="1">
          <mxGeometry x="520" y="80" width="140" height="40" as="geometry" />
        </mxCell>
        <mxCell id="-M3N0pG6VcguPk9W78NM-3" value="Updating Inventory" style="ellipse;whiteSpace=wrap;html=1;" vertex="1" parent="1">
          <mxGeometry x="750" y="110" width="120" height="80" as="geometry" />
        </mxCell>
        <mxCell id="-M3N0pG6VcguPk9W78NM-4" value="Check Product Avaibility" style="ellipse;whiteSpace=wrap;html=1;" vertex="1" parent="1">
          <mxGeometry x="520" y="280" width="120" height="80" as="geometry" />
        </mxCell>
        <mxCell id="-M3N0pG6VcguPk9W78NM-5" value="" style="shape=link;html=1;rounded=0;width=40;" edge="1" parent="1">
          <mxGeometry width="100" relative="1" as="geometry">
            <mxPoint x="300" y="60" as="sourcePoint" />
            <mxPoint x="400" y="60" as="targetPoint" />
            <Array as="points" />
          </mxGeometry>
        </mxCell>
        <mxCell id="-M3N0pG6VcguPk9W78NM-6" value="User" style="text;html=1;align=center;verticalAlign=middle;whiteSpace=wrap;rounded=0;" vertex="1" parent="1">
          <mxGeometry x="320" y="40" width="60" height="30" as="geometry" />
        </mxCell>
      </root>
    </mxGraphModel>
  </diagram>
</mxfile>
